{
  "accessors": [
    {
      "bufferView": 2,
      "componentType": 5126,
      "count": 1519,
      "max": [
        1.170375943183899,
        0.4159800112247467,
        3.1851789951324463
      ],
      "min": [
        -1.163694977760315,
        -0.33069199323654175,
        1.7749639749526978
      ],
      "type": "VEC3"
    },
    {
      "bufferView": 2,
      "byteOffset": 18228,
      "componentType": 5126,
      "count": 1519,
      "max": [
        1.0,
        0.9997815489768982,
        0.9987587928771973
      ],
      "min": [
        -1.0,
        -0.9995388388633728,
        -0.9981469511985779
      ],
      "type": "VEC3"
    },
    {
      "bufferView": 1,
      "componentType": 5126,
      "count": 1519,
      "max": [
        0.9838870167732239,
        0.9867249727249146
      ],
      "min": [
        0.00406600022688508,
        0.006835999898612499
      ],
      "type": "VEC2"
    },
    {
      "bufferView": 0,
      "componentType": 5125,
      "count": 7395,
      "type": "SCALAR"
    },
    {
      "bufferView": 2,
      "byteOffset": 36456,
      "componentType": 5126,
      "count": 1449,
      "max": [
        0.4628250002861023,
        0.2883000075817108,
        2.1031200885772705
      ],
      "min": [
        -0.45996999740600586,
        -0.3877350091934204,
        0.00014000000373926014
      ],
      "type": "VEC3"
    },
    {
      "bufferView": 2,
      "byteOffset": 53844,
      "componentType": 5126,
      "count": 1449,
      "max": [
        0.9992295503616333,
        0.9999433755874634,
        0.9897080659866333
      ],
      "min": [
        -0.9993777275085449,
        -0.999521791934967,
        -0.9969228506088257
      ],
      "type": "VEC3"
    },
    {
      "bufferView": 1,
      "byteOffset": 12152,
      "componentType": 5126,
      "count": 1449,
      "max": [
        0.9956049919128418,
        0.992812991142273
      ],
      "min": [
        0.008194000460207462,
        0.0014649999793618917
      ],
      "type": "VEC2"
    },
    {
      "bufferView": 0,
      "byteOffset": 29580,
      "componentType": 5125,
      "count": 7248,
      "type": "SCALAR"
    },
    {
      "bufferView": 2,
      "byteOffset": 71232,
      "componentType": 5126,
      "count": 148,
      "max": [
        0.10520000010728836,
        -0.20497499406337738,
        3.359447956085205
      ],
      "min": [
        -0.09898699820041656,
        -0.24584299325942993,
        3.3221659660339355
      ],
      "type": "VEC3"
    },
    {
      "bufferView": 2,
      "byteOffset": 73008,
      "componentType": 5126,
      "count": 148,
      "max": [
        0.6563079357147217,
        0.7441514730453491,
        0.9983653426170349
      ],
      "min": [
        -0.6054706573486328,
        -0.927553117275238,
        0.3358830213546753
      ],
      "type": "VEC3"
    },
    {
      "bufferView": 1,
      "byteOffset": 23744,
      "componentType": 5126,
      "count": 148,
      "max": [
        0.9980469942092896,
        0.9996560215950012
      ],
      "min": [
        0.00027799999224953353,
        0.020508000627160072
      ],
      "type": "VEC2"
    },
    {
      "bufferView": 0,
      "byteOffset": 58572,
      "componentType": 5125,
      "count": 576,
      "type": "SCALAR"
    },
    {
      "bufferView": 2,
      "byteOffset": 74784,
      "componentType": 5126,
      "count": 402,
      "max": [
        0.099761001765728,
        -0.18797899782657623,
        3.3768789768218994
      ],
      "min": [
        -0.09306000173091888,
        -0.22249899804592133,
        3.3115060329437256
      ],
      "type": "VEC3"
    },
    {
      "bufferView": 2,
      "byteOffset": 79608,
      "componentType": 5126,
      "count": 402,
      "max": [
        0.9961646199226379,
        -0.03620162606239319,
        0.9922214150428772
      ],
      "min": [
        -0.9966663718223572,
        -1.0,
        -0.9988447427749634
      ],
      "type": "VEC3"
    },
    {
      "bufferView": 1,
      "byteOffset": 24928,
      "componentType": 5126,
      "count": 402,
      "max": [
        0.9716799855232239,
        0.9793850183486938
      ],
      "min": [
        0.014832000248134136,
        0.022461000829935074
      ],
      "type": "VEC2"
    },
    {
      "bufferView": 0,
      "byteOffset": 60876,
      "componentType": 5125,
      "count": 2280,
      "type": "SCALAR"
    },
    {
      "bufferView": 2,
      "byteOffset": 84432,
      "componentType": 5126,
      "count": 366,
      "max": [
        0.18832500278949738,
        -0.046900998800992966,
        3.3787119388580322
      ],
      "min": [
        -0.1738480031490326,
        -0.2684510052204132,
        3.2764840126037598
      ],
      "type": "VEC3"
    },
    {
      "bufferView": 2,
      "byteOffset": 88824,
      "componentType": 5126,
      "count": 366,
      "max": [
        0.9984873533248901,
        0.9994286298751831,
        0.9960687756538391
      ],
      "min": [
        -0.9985541701316833,
        -0.9999825954437256,
        -0.9958571195602417
      ],
      "type": "VEC3"
    },
    {
      "bufferView": 1,
      "byteOffset": 28144,
      "componentType": 5126,
      "count": 366,
      "max": [
        0.9912109971046448,
        0.9820709824562073
      ],
      "min": [
        0.010696000419557095,
        0.08105500042438507
      ],
      "type": "VEC2"
    },
    {
      "bufferView": 0,
      "byteOffset": 69996,
      "componentType": 5125,
      "count": 1554,
      "type": "SCALAR"
    },
    {
      "bufferView": 2,
      "byteOffset": 93216,
      "componentType": 5126,
      "count": 1386,
      "max": [
        0.23119699954986572,
        0.20321999490261078,
        3.7148830890655518
      ],
      "min": [
        -0.22425200045108795,
        -0.303725004196167,
        3.159899950027466
      ],
      "type": "VEC3"
    },
    {
      "bufferView": 2,
      "byteOffset": 109848,
      "componentType": 5126,
      "count": 1386,
      "max": [
        0.9985820055007935,
        0.9986870288848877,
        0.9997557997703552
      ],
      "min": [
        -0.9992120265960693,
        -0.9990322589874268,
        -0.6540148854255676
      ],
      "type": "VEC3"
    },
    {
      "bufferView": 1,
      "byteOffset": 31072,
      "componentType": 5126,
      "count": 1386,
      "max": [
        1.0087889432907104,
        1.0018030405044556
      ],
      "min": [
        0.0007169999880716205,
        -0.0009769999887794256
      ],
      "type": "VEC2"
    },
    {
      "bufferView": 0,
      "byteOffset": 76212,
      "componentType": 5125,
      "count": 4323,
      "type": "SCALAR"
    },
    {
      "bufferView": 2,
      "byteOffset": 126480,
      "componentType": 5126,
      "count": 1356,
      "max": [
        1.2667089700698853,
        -0.03812199831008911,
        2.2891459465026855
      ],
      "min": [
        -1.26385498046875,
        -0.3739449977874756,
        1.903581976890564
      ],
      "type": "VEC3"
    },
    {
      "bufferView": 2,
      "byteOffset": 142752,
      "componentType": 5126,
      "count": 1356,
      "max": [
        0.9957572817802429,
        0.9755333662033081,
        0.8200998902320862
      ],
      "min": [
        -0.9957572817802429,
        -0.9987485408782959,
        -0.9998975992202759
      ],
      "type": "VEC3"
    },
    {
      "bufferView": 1,
      "byteOffset": 42160,
      "componentType": 5126,
      "count": 1356,
      "max": [
        0.9516599774360657,
        0.9154049754142761
      ],
      "min": [
        0.02787799946963787,
        0.1206049993634224
      ],
      "type": "VEC2"
    },
    {
      "bufferView": 0,
      "byteOffset": 93504,
      "componentType": 5125,
      "count": 6648,
      "type": "SCALAR"
    },
    {
      "bufferView": 2,
      "byteOffset": 159024,
      "componentType": 5126,
      "count": 2593,
      "max": [
        0.22999699413776398,
        0.2016250044107437,
        3.6271049976348877
      ],
      "min": [
        -0.22679099440574646,
        -0.2925040125846863,
        2.85640811920166
      ],
      "type": "VEC3"
    },
    {
      "bufferView": 2,
      "byteOffset": 190140,
      "componentType": 5126,
      "count": 2593,
      "max": [
        0.9997898936271667,
        0.9999723434448242,
        0.9999864101409912
      ],
      "min": [
        -0.9996340870857239,
        -0.9999655485153198,
        -0.9996834397315979
      ],
      "type": "VEC3"
    },
    {
      "bufferView": 1,
      "byteOffset": 53008,
      "componentType": 5126,
      "count": 2593,
      "max": [
        1.0,
        0.9985809922218323
      ],
      "min": [
        0.0,
        0.0
      ],
      "type": "VEC2"
    },
    {
      "bufferView": 0,
      "byteOffset": 120096,
      "componentType": 5125,
      "count": 15048,
      "type": "SCALAR"
    },
    {
      "bufferView": 2,
      "byteOffset": 221256,
      "componentType": 5126,
      "count": 72,
      "max": [
        0.09300000220537186,
        -0.20619800686836243,
        3.352576971054077
      ],
      "min": [
        -0.08779799938201904,
        -0.2272460013628006,
        3.328887939453125
      ],
      "type": "VEC3"
    },
    {
      "bufferView": 2,
      "byteOffset": 222120,
      "componentType": 5126,
      "count": 72,
      "max": [
        0.8757688999176025,
        -0.408802330493927,
        0.5893827676773071
      ],
      "min": [
        -0.9026803970336914,
        -0.9980416893959045,
        -0.42280101776123047
      ],
      "type": "VEC3"
    },
    {
      "bufferView": 1,
      "byteOffset": 73752,
      "componentType": 5126,
      "count": 72,
      "max": [
        0.4853520095348358,
        0.9416199922561646
      ],
      "min": [
        0.05462599918246269,
        0.14013700187206268
      ],
      "type": "VEC2"
    },
    {
      "bufferView": 0,
      "byteOffset": 180288,
      "componentType": 5125,
      "count": 222,
      "type": "SCALAR"
    },
    {
      "bufferView": 2,
      "byteOffset": 222984,
      "componentType": 5126,
      "count": 334,
      "max": [
        0.06235000118613243,
        -0.10583800077438354,
        3.2393319606781006
      ],
      "min": [
        -0.05887199938297272,
        -0.2415589988231659,
        3.181303024291992
      ],
      "type": "VEC3"
    },
    {
      "bufferView": 2,
      "byteOffset": 226992,
      "componentType": 5126,
      "count": 334,
      "max": [
        0.9912558197975159,
        0.9478187561035156,
        0.9956663846969604
      ],
      "min": [
        -0.9912558197975159,
        -0.9841376543045044,
        -0.9944756627082825
      ],
      "type": "VEC3"
    },
    {
      "bufferView": 1,
      "byteOffset": 74328,
      "componentType": 5126,
      "count": 334,
      "max": [
        0.9992250204086304,
        0.9936710000038147
      ],
      "min": [
        0.0004879999905824661,
        0.005371000152081251
      ],
      "type": "VEC2"
    },
    {
      "bufferView": 0,
      "byteOffset": 181176,
      "componentType": 5125,
      "count": 1443,
      "type": "SCALAR"
    },
    {
      "bufferView": 2,
      "byteOffset": 231000,
      "componentType": 5126,
      "count": 1002,
      "max": [
        1.1935689449310303,
        0.5717779994010925,
        3.1089959144592285
      ],
      "min": [
        -1.204421043395996,
        -0.4164310097694397,
        2.0093579292297363
      ],
      "type": "VEC3"
    },
    {
      "bufferView": 2,
      "byteOffset": 243024,
      "componentType": 5126,
      "count": 1002,
      "max": [
        0.9449484348297119,
        0.9962781071662903,
        0.9956270456314087
      ],
      "min": [
        -0.9491624236106873,
        -0.99500572681427,
        -0.9785144925117493
      ],
      "type": "VEC3"
    },
    {
      "bufferView": 1,
      "byteOffset": 77000,
      "componentType": 5126,
      "count": 1002,
      "max": [
        0.9593430161476135,
        0.9739189743995667
      ],
      "min": [
        0.03127799928188324,
        0.10696599632501602
      ],
      "type": "VEC2"
    },
    {
      "bufferView": 0,
      "byteOffset": 186948,
      "componentType": 5125,
      "count": 1002,
      "type": "SCALAR"
    },
    {
      "bufferView": 2,
      "byteOffset": 255048,
      "componentType": 5126,
      "count": 708,
      "max": [
        0.8752070069313049,
        0.5458660125732422,
        2.606537103652954
      ],
      "min": [
        -0.8278560042381287,
        -0.6402459740638733,
        0.37955600023269653
      ],
      "type": "VEC3"
    },
    {
      "bufferView": 2,
      "byteOffset": 263544,
      "componentType": 5126,
      "count": 708,
      "max": [
        0.9964559674263,
        0.9967949986457825,
        0.4544145166873932
      ],
      "min": [
        -0.9964888691902161,
        -0.9973670244216919,
        -0.43849223852157593
      ],
      "type": "VEC3"
    },
    {
      "bufferView": 1,
      "byteOffset": 85016,
      "componentType": 5126,
      "count": 708,
      "max": [
        0.9716629981994629,
        0.6753569841384888
      ],
      "min": [
        0.11016199737787247,
        0.02115499973297119
      ],
      "type": "VEC2"
    },
    {
      "bufferView": 0,
      "byteOffset": 190956,
      "componentType": 5125,
      "count": 708,
      "type": "SCALAR"
    }
  ],
  "asset": {
    "extras": {
      "author": "Matthew Tew (https://sketchfab.com/matt1279797)",
      "license": "CC-BY-4.0 (http://creativecommons.org/licenses/by/4.0/)",
      "source": "https://sketchfab.com/3d-models/harry-potter-9e546d0de09d4bd4b54e5f705b568769",
      "title": "Harry Potter"
    },
    "generator": "Sketchfab-12.66.0",
    "version": "2.0"
  },
  "bufferViews": [
    {
      "buffer": 0,
      "byteLength": 193788,
      "name": "floatBufferViews",
      "target": 34963
    },
    {
      "buffer": 0,
      "byteLength": 90680,
      "byteOffset": 193788,
      "byteStride": 8,
      "name": "floatBufferViews",
      "target": 34962
    },
    {
      "buffer": 0,
      "byteLength": 272040,
      "byteOffset": 284468,
      "byteStride": 12,
      "name": "floatBufferViews",
      "target": 34962
    }
  ],
  "buffers": [
    {
      "byteLength": 556508,
      "uri": "scene.bin"
    }
  ],
  "images": [
    {
      "uri": "textures/Harry_clothes1.001_baseColor.png"
    },
    {
      "uri": "textures/Harry_clothes2.001_baseColor.png"
    },
    {
      "uri": "textures/Harry_eyelash.001_baseColor.png"
    },
    {
      "uri": "textures/Harry_eyes.001_baseColor.png"
    },
    {
      "uri": "textures/Harry_glasses.001_baseColor.png"
    },
    {
      "uri": "textures/Harry_hair.001_baseColor.png"
    },
    {
      "uri": "textures/Harry_hands.001_baseColor.png"
    },
    {
      "uri": "textures/Harry_head.001_baseColor.png"
    },
    {
      "uri": "textures/Harry_lacrimal.001_baseColor.png"
    },
    {
      "uri": "textures/Harry_mouth.001_baseColor.png"
    },
    {
      "uri": "textures/material_0.007_baseColor.png"
    }
  ],
  "materials": [
    {
      "doubleSided": true,
      "name": "Harry_clothes1.001",
      "pbrMetallicRoughness": {
        "baseColorTexture": {
          "index": 0
        },
        "metallicFactor": 0.0,
        "roughnessFactor": 0.6
      }
    },
    {
      "doubleSided": true,
      "name": "Harry_clothes2.001",
      "pbrMetallicRoughness": {
        "baseColorTexture": {
          "index": 1
        },
        "metallicFactor": 0.0,
        "roughnessFactor": 0.6
      }
    },
    {
      "doubleSided": true,
      "name": "Harry_eyelash.001",
      "pbrMetallicRoughness": {
        "baseColorTexture": {
          "index": 2
        },
        "metallicFactor": 0.0,
        "roughnessFactor": 0.6
      }
    },
    {
      "doubleSided": true,
      "name": "Harry_eyes.001",
      "pbrMetallicRoughness": {
        "baseColorTexture": {
          "index": 3
        },
        "metallicFactor": 0.0,
        "roughnessFactor": 0.6
      }
    },
    {
      "doubleSided": true,
      "name": "Harry_glasses.001",
      "pbrMetallicRoughness": {
        "baseColorTexture": {
          "index": 4
        },
        "metallicFactor": 0.0,
        "roughnessFactor": 0.6
      }
    },
    {
      "doubleSided": true,
      "name": "Harry_hair.001",
      "pbrMetallicRoughness": {
        "baseColorTexture": {
          "index": 5
        },
        "metallicFactor": 0.0,
        "roughnessFactor": 0.6
      }
    },
    {
      "doubleSided": true,
      "name": "Harry_hands.001",
      "pbrMetallicRoughness": {
        "baseColorTexture": {
          "index": 6
        },
        "metallicFactor": 0.0,
        "roughnessFactor": 0.6
      }
    },
    {
      "doubleSided": true,
      "name": "Harry_head.001",
      "pbrMetallicRoughness": {
        "baseColorTexture": {
          "index": 7
        },
        "metallicFactor": 0.0,
        "roughnessFactor": 0.6
      }
    },
    {
      "doubleSided": true,
      "name": "Harry_lacrimal.001",
      "pbrMetallicRoughness": {
        "baseColorTexture": {
          "index": 8
        },
        "metallicFactor": 0.0,
        "roughnessFactor": 0.6
      }
    },
    {
      "doubleSided": true,
      "name": "Harry_mouth.001",
      "pbrMetallicRoughness": {
        "baseColorTexture": {
          "index": 9
        },
        "metallicFactor": 0.0,
        "roughnessFactor": 0.6
      }
    },
    {
      "doubleSided": true,
      "name": "material_0.007",
      "pbrMetallicRoughness": {
        "baseColorTexture": {
          "index": 10
        },
        "metallicFactor": 0.0,
        "roughnessFactor": 0.6
      }
    },
    {
      "doubleSided": true,
      "name": "material_1.007",
      "pbrMetallicRoughness": {
        "baseColorTexture": {
          "index": 10
        },
        "metallicFactor": 0.0,
        "roughnessFactor": 0.6
      }
    }
  ],
  "meshes": [
    {
      "name": "Object_0",
      "primitives": [
        {
          "attributes": {
            "NORMAL": 1,
            "POSITION": 0,
            "TEXCOORD_0": 2
          },
          "indices": 3,
          "material": 0,
          "mode": 4
        }
      ]
    },
    {
      "name": "Object_1",
      "primitives": [
        {
          "attributes": {
            "NORMAL": 5,
            "POSITION": 4,
            "TEXCOORD_0": 6
          },
          "indices": 7,
          "material": 1,
          "mode": 4
        }
      ]
    },
    {
      "name": "Object_2",
      "primitives": [
        {
          "attributes": {
            "NORMAL": 9,
            "POSITION": 8,
            "TEXCOORD_0": 10
          },
          "indices": 11,
          "material": 2,
          "mode": 4
        }
      ]
    },
    {
      "name": "Object_3",
      "primitives": [
        {
          "attributes": {
            "NORMAL": 13,
            "POSITION": 12,
            "TEXCOORD_0": 14
          },
          "indices": 15,
          "material": 3,
          "mode": 4
        }
      ]
    },
    {
      "name": "Object_4",
      "primitives": [
        {
          "attributes": {
            "NORMAL": 17,
            "POSITION": 16,
            "TEXCOORD_0": 18
          },
          "indices": 19,
          "material": 4,
          "mode": 4
        }
      ]
    },
    {
      "name": "Object_5",
      "primitives": [
        {
          "attributes": {
            "NORMAL": 21,
            "POSITION": 20,
            "TEXCOORD_0": 22
          },
          "indices": 23,
          "material": 5,
          "mode": 4
        }
      ]
    },
    {
      "name": "Object_6",
      "primitives": [
        {
          "attributes": {
            "NORMAL": 25,
            "POSITION": 24,
            "TEXCOORD_0": 26
          },
          "indices": 27,
          "material": 6,
          "mode": 4
        }
      ]
    },
    {
      "name": "Object_7",
      "primitives": [
        {
          "attributes": {
            "NORMAL": 29,
            "POSITION": 28,
            "TEXCOORD_0": 30
          },
          "indices": 31,
          "material": 7,
          "mode": 4
        }
      ]
    },
    {
      "name": "Object_8",
      "primitives": [
        {
          "attributes": {
            "NORMAL": 33,
            "POSITION": 32,
            "TEXCOORD_0": 34
          },
          "indices": 35,
          "material": 8,
          "mode": 4
        }
      ]
    },
    {
      "name": "Object_9",
      "primitives": [
        {
          "attributes": {
            "NORMAL": 37,
            "POSITION": 36,
            "TEXCOORD_0": 38
          },
          "indices": 39,
          "material": 9,
          "mode": 4
        }
      ]
    },
    {
      "name": "Object_10",
      "primitives": [
        {
          "attributes": {
            "NORMAL": 41,
            "POSITION": 40,
            "TEXCOORD_0": 42
          },
          "indices": 43,
          "material": 10,
          "mode": 4
        }
      ]
    },
    {
      "name": "Object_11",
      "primitives": [
        {
          "attributes": {
            "NORMAL": 45,
            "POSITION": 44,
            "TEXCOORD_0": 46
          },
          "indices": 47,
          "material": 11,
          "mode": 4
        }
      ]
    }
  ],
  "nodes": [
    {
      "children": [
        1
      ],
      "matrix": [
        1.0,
        0.0,
        0.0,
        0.0,
        0.0,
        2.220446049250313e-16,
        -1.0,
        0.0,
        0.0,
        1.0,
        2.220446049250313e-16,
        0.0,
        0.0,
        0.0,
        0.0,
        1.0
      ],
      "name": "Sketchfab_model"
    },
    {
      "children": [
        2,
        3,
        4,
        5,
        6,
        7,
        8,
        9,
        10,
        11,
        12,
        13
      ],
      "name": "Harry_Potter.obj.cleaner.gles"
    },
    {
      "mesh": 0,
      "name": "Object_2"
    },
    {
      "mesh": 1,
      "name": "Object_3"
    },
    {
      "mesh": 2,
      "name": "Object_4"
    },
    {
      "mesh": 3,
      "name": "Object_5"
    },
    {
      "mesh": 4,
      "name": "Object_6"
    },
    {
      "mesh": 5,
      "name": "Object_7"
    },
    {
      "mesh": 6,
      "name": "Object_8"
    },
    {
      "mesh": 7,
      "name": "Object_9"
    },
    {
      "mesh": 8,
      "name": "Object_10"
    },
    {
      "mesh": 9,
      "name": "Object_11"
    },
    {
      "mesh": 10,
      "name": "Object_12"
    },
    {
      "mesh": 11,
      "name": "Object_13"
    }
  ],
  "samplers": [
    {
      "magFilter": 9729,
      "minFilter": 9987,
      "wrapS": 10497,
      "wrapT": 10497
    }
  ],
  "scene": 0,
  "scenes": [
    {
      "name": "Sketchfab_Scene",
      "nodes": [
        0
      ]
    }
  ],
  "textures": [
    {
      "sampler": 0,
      "source": 0
    },
    {
      "sampler": 0,
      "source": 1
    },
    {
      "sampler": 0,
      "source": 2
    },
    {
      "sampler": 0,
      "source": 3
    },
    {
      "sampler": 0,
      "source": 4
    },
    {
      "sampler": 0,
      "source": 5
    },
    {
      "sampler": 0,
      "source": 6
    },
    {
      "sampler": 0,
      "source": 7
    },
    {
      "sampler": 0,
      "source": 8
    },
    {
      "sampler": 0,
      "source": 9
    },
    {
      "sampler": 0,
      "source": 10
    }
  ]
}
